<svg width="202" height="71" viewBox="0 0 202 71" fill="none" xmlns="http://www.w3.org/2000/svg">
<path d="M171 39V65L202 65L171 39Z" fill="#FAEBD7"/>
<path d="M171 59V33L202 33L171 59Z" fill="#FAEBD7"/>
<path d="M31 39L31 65L0 65L31 39Z" fill="#FAEBD7"/>
<path d="M31 59L31 33H0L31 59Z" fill="#FAEBD7"/>
<g filter="url(#filter0_d)">
<path d="M58.7945 9.36235C43.7927 14.1207 22 27.1514 22 27.1514V64C22 64 44.0326 53.7673 58.7945 50.0229C75.8117 45.7066 85.7548 44.8391 103.164 44.9404C119.733 45.0367 129.219 45.6808 145.37 50.0229C159.31 53.7707 180 64 180 64V27.1514C180 27.1514 159.563 14.1262 145.37 9.36235C129.393 3.99965 119.781 3.12927 103.164 3.00914C85.7088 2.88293 75.6463 4.0172 58.7945 9.36235Z" fill="#FAEBD7"/>
</g>
<defs>
<filter id="filter0_d" x="18" y="0" width="168" height="71" filterUnits="userSpaceOnUse" color-interpolation-filters="sRGB">
<feFlood flood-opacity="0" result="BackgroundImageFix"/>
<feColorMatrix in="SourceAlpha" type="matrix" values="0 0 0 0 0 0 0 0 0 0 0 0 0 0 0 0 0 0 127 0"/>
<feOffset dx="1" dy="2"/>
<feGaussianBlur stdDeviation="2.5"/>
<feColorMatrix type="matrix" values="0 0 0 0 0.909804 0 0 0 0 0.847059 0 0 0 0 0.741176 0 0 0 1 0"/>
<feBlend mode="normal" in2="BackgroundImageFix" result="effect1_dropShadow"/>
<feBlend mode="normal" in="SourceGraphic" in2="effect1_dropShadow" result="shape"/>
</filter>
</defs>
</svg>
